<svg width="56.693" height="56.693" xmlns="http://www.w3.org/2000/svg">

 <g>
  <title>background</title>
  <rect fill="none" id="canvas_background" height="402" width="582" y="-1" x="-1"/>
 </g>
 <g>
  <title>Layer 1</title>
  <polygon fill="#3f72b0" id="svg_2" points="29.018999099731445,33.683395590633154 32.77399826049805,33.683395590633154 32.42100143432617,37.642395224422216 29.018999099731445,38.56239339336753 29.014999389648438,38.56239339336753 25.615999221801758,37.642395224422216 25.392000198364258,35.103393759578466 22.32699966430664,35.103393759578466 22.764999389648438,40.00239583477378 29.014999389648438,41.73639317974448 29.018999099731445,41.734394278377295 35.27199935913086,40.00239583477378 36.108001708984375,30.634393896907568 29.018999099731445,30.634393896907568 24.990999221801758,30.634393896907568 24.711999893188477,27.51139470562339 29.018999099731445,27.51139470562339 36.38600158691406,27.51139470562339 36.659000396728516,24.46139356121421 29.018999099731445,24.46139356121421 21.378000259399414,24.46139356121421 22.20199966430664,33.683395590633154 "/>
  <path fill="#3f72b0" id="svg_3" d="m28.347,5.157c-13.6,0 -24.625,11.027 -24.625,24.625c0,13.6 11.024,24.623 24.625,24.623c13.602,0 24.625,-11.023 24.625,-24.623c0,-13.598 -11.024,-24.625 -24.625,-24.625zm6.875,7.603l1.551,0l0,3.107l2.18,0l0,1.531l-3.73,0l0,-4.638l-0.001,0zm-5.993,0l1.615,0l0.994,1.629l0.994,-1.629l1.617,0l0,4.639l-1.545,0l0,-2.299l-1.066,1.648l-0.025,0l-1.068,-1.648l0,2.299l-1.516,0l0,-4.639zm-4.96,0l4.281,0l0,1.539l-1.367,0l0,3.1l-1.549,0l0,-3.1l-1.365,0l0,-1.539zm-5.193,0l1.55,0l0,1.533l1.418,0l0,-1.533l1.551,0l0,4.639l-1.551,0l0,-1.553l-1.418,0l0,1.553l-1.55,0l0,-4.639zm19.902,31.548l-9.965,2.764l-9.954,-2.766l-2.218,-24.872l24.355,0l-2.218,24.874z"/>
 </g>
</svg>