<svg width="504" height="504" xmlns="http://www.w3.org/2000/svg">

 <g>
  <title>background</title>
  <rect fill="none" id="canvas_background" height="402" width="582" y="-1" x="-1"/>
 </g>
 <g>
  <title>Layer 1</title>
  <path id="svg_1" fill="#3765af" d="m457.1,260.763636c-9.2,58.5 -27.1,75.6 -58.8,114.9c-31.7,33.3 -77.3,88.9 -141.9,85.8c-58.5,-9.2 -75.6,-27.1 -114.9,-58.8c-33.3,-31.7 -88.9,-77.3 -85.8,-141.9c9.2,-58.5 27.1,-75.6 58.8,-114.9c31.7,-33.3 77.3,-88.9 141.9,-85.8c58.5,9.2 75.6,27.1 114.9,58.8c33.3,31.7 88.9,77.3 85.8,141.9z"/>
  <polygon id="svg_3" points="174.9,360.3 156.8,157 356,157 337.9,360.3 256.3,382.9  " fill="#FFFFFF"/>
  <polygon id="svg_4" points="256.4,249 223.4,249 221.1,223.5 256.4,223.5 256.4,198.5 256.3,198.5 193.9,198.5 194.5,205.2    200.6,274 256.4,274  " fill="#3765AF"/>
  <polygon id="svg_5" points="256.4,313.8 256.3,313.8 228.5,306.3 226.7,286.4 213.2,286.4 201.7,286.4 205.2,325.6    256.3,339.8 256.4,339.8  " fill="#3765AF"/>
  <polygon id="svg_6" points="256.3,249 256.3,274 287,274 284.1,306.3 256.3,313.8 256.3,339.8 307.4,325.6 307.8,321.4    313.7,255.7 314.3,249 307.6,249  " fill="#3765AF"/>
  <polygon id="svg_7" points="256.3,198.5 256.3,214 256.3,223.4 256.3,223.5 316.5,223.5 316.5,223.5 316.6,223.5 317.1,217.9    318.2,205.2 318.8,198.5  " fill="#3765AF"/>
 </g>
</svg>