<svg width="128" height="128" xmlns="http://www.w3.org/2000/svg">

 <g>
  <title>background</title>
  <rect fill="none" id="canvas_background" height="402" width="582" y="-1" x="-1"/>
 </g>
 <g>
  <title>Layer 1</title>
  <circle fill="#3f72b0" id="svg_5" r="50" cy="64.126579" cx="63.873421" class="st0"/>
  <circle fill="#ffffff" id="svg_7" r="5.5" cy="63.9" cx="64" class="st1"/>
  <path fill="#ffffff" id="svg_8" d="m91.6,58.5c-1.9,-1.6 -4.6,-3 -7.8,-4.1c-0.6,-0.2 -1.3,-0.4 -2,-0.6c0.1,-0.5 0.2,-0.9 0.3,-1.4c1.5,-7.4 0.4,-13.2 -2.8,-15.1c-1.6,-0.9 -3.8,-0.9 -6.3,0c-2.3,0.9 -4.9,2.5 -7.4,4.7c-0.5,0.4 -1,0.9 -1.5,1.4c-0.3,-0.3 -0.7,-0.6 -1,-0.9c-5.6,-5 -11.2,-7 -14.5,-5.1c-1.6,0.9 -2.7,2.8 -3.2,5.5c-0.4,2.4 -0.3,5.5 0.4,8.8c0.1,0.7 0.3,1.3 0.5,2c-0.8,0.2 -1.6,0.5 -2.3,0.7c-6.7,2.3 -10.7,5.9 -10.7,9.5c0,1.9 1.1,3.9 3.2,5.6c2,1.7 4.8,3.2 8,4.3c0.5,0.2 1.1,0.4 1.7,0.5c-0.2,0.7 -0.3,1.5 -0.5,2.2c-1.3,6.9 -0.2,12.2 2.9,14c0.8,0.5 1.8,0.7 2.9,0.7c1.1,0 2.3,-0.2 3.6,-0.7c2.5,-0.9 5.1,-2.5 7.7,-4.8c0.4,-0.4 0.9,-0.8 1.3,-1.2c0.6,0.5 1.1,1 1.7,1.5c3.9,3.4 7.7,5.2 10.7,5.2c1.1,0 2.1,-0.2 2.9,-0.7c1.6,-1 2.8,-2.9 3.3,-5.6c0.5,-2.6 0.4,-5.7 -0.3,-9.1c-0.1,-0.5 -0.2,-1.1 -0.4,-1.6c0.4,-0.1 0.8,-0.2 1.1,-0.4c7.2,-2.4 11.6,-6.2 11.6,-10c0,-1.7 -1.1,-3.6 -3.1,-5.3zm-17.7,-18.7c1.8,-0.6 3.2,-0.7 4.1,-0.2c1.8,1 3,5.3 1.6,12.3c-0.1,0.4 -0.2,0.8 -0.3,1.2c-2.6,-0.6 -5.3,-1 -8.2,-1.3c-1.7,-2.4 -3.4,-4.6 -5.2,-6.5c0.5,-0.5 0.9,-0.9 1.4,-1.3c2.3,-2 4.6,-3.4 6.6,-4.2zm-1.3,29.2c-1,1.7 -1.9,3.3 -2.9,4.7c-1.8,0.1 -3.7,0.2 -5.6,0.2c-1.9,0 -3.8,-0.1 -5.6,-0.2c-1,-1.5 -2.1,-3.1 -3,-4.8c-1,-1.6 -1.8,-3.3 -2.6,-5c0.8,-1.7 1.7,-3.3 2.6,-4.9l0,0c1,-1.6 2,-3.2 3,-4.8c1.8,-0.1 3.7,-0.2 5.6,-0.2c1.9,0 3.8,0.1 5.6,0.2c1,1.5 2,3.1 3,4.7c1,1.7 1.9,3.3 2.7,4.9c-1,1.8 -1.8,3.5 -2.8,5.2zm4,-2c0.8,1.9 1.5,3.7 2.1,5.4c-1.8,0.4 -3.7,0.7 -5.7,1c0.6,-1 1.3,-2.1 1.9,-3.1c0.6,-1.1 1.2,-2.2 1.7,-3.3zm-12.5,13.9c-1.2,-1.3 -2.5,-2.8 -3.7,-4.4c1.2,0 2.4,0.1 3.6,0.1c1.3,0 2.5,0 3.7,-0.1c-1.2,1.6 -2.4,3.1 -3.6,4.4zm-9,-7.5c-2,-0.2 -3.9,-0.5 -5.7,-0.9c0.5,-1.8 1.2,-3.6 2,-5.4c0.6,1.1 1.1,2.1 1.7,3.2c0.7,1.1 1.3,2.1 2,3.1zm-1.9,-15.7c-0.6,1.1 -1.2,2.1 -1.7,3.2c-0.8,-1.8 -1.4,-3.6 -2,-5.3c1.8,-0.4 3.6,-0.7 5.6,-1c-0.7,1 -1.3,2.1 -1.9,3.1zm10.8,-10.5c1.2,1.3 2.4,2.8 3.6,4.4c-1.2,-0.1 -2.4,-0.1 -3.7,-0.1c-1.2,0 -2.4,0 -3.6,0.1c1.3,-1.6 2.5,-3.1 3.7,-4.4zm10.8,10.5c-0.6,-1.1 -1.2,-2.1 -1.9,-3.1c2,0.2 3.8,0.6 5.6,1c-0.5,1.7 -1.2,3.5 -2,5.3c-0.4,-1 -1,-2.1 -1.7,-3.2zm-26.5,-6.5c-0.6,-3 -0.7,-5.7 -0.3,-7.8c0.3,-1.8 1,-3.1 1.9,-3.7c1.8,-1 6.1,0 11.4,4.8c0.3,0.3 0.6,0.6 0.9,0.9c-1.8,1.9 -3.5,4.1 -5.2,6.5c-2.9,0.3 -5.7,0.7 -8.2,1.3c-0.2,-0.8 -0.3,-1.4 -0.5,-2zm-2.9,20.2c-6.5,-2.2 -9.5,-5.4 -9.5,-7.5c0,-2 2.8,-4.9 8.9,-7c0.7,-0.2 1.4,-0.5 2.1,-0.7c0.8,2.5 1.8,5.1 3,7.8c-1.2,2.7 -2.3,5.3 -3,7.9c-0.5,-0.2 -1,-0.3 -1.5,-0.5zm6.1,17.3c-0.7,0 -1.2,-0.1 -1.6,-0.4c-1.7,-1 -2.9,-4.8 -1.6,-11.2c0.1,-0.7 0.3,-1.3 0.4,-2c2.5,0.6 5.3,1 8.3,1.2c1.7,2.4 3.5,4.6 5.3,6.5c-0.4,0.4 -0.8,0.7 -1.2,1.1c-3.9,3.4 -7.4,4.8 -9.6,4.8zm28.3,-12.3c1.3,6.7 0,10.9 -1.7,11.9c-1.7,1 -5.6,0.1 -10.5,-4.2c-0.5,-0.4 -1,-0.9 -1.5,-1.4c1.7,-1.9 3.5,-4.1 5.2,-6.5c3,-0.3 5.8,-0.7 8.3,-1.3c0,0.5 0.1,1 0.2,1.5zm2.5,-5c-0.3,0.1 -0.7,0.2 -1,0.3c-0.8,-2.4 -1.8,-5.1 -3.1,-7.8c1.2,-2.6 2.2,-5.2 3,-7.7c0.6,0.2 1.2,0.4 1.8,0.6c2.9,1 5.3,2.3 6.9,3.6c1.4,1.2 2.2,2.4 2.2,3.5c0,2.1 -3.1,5.3 -9.8,7.5z" class="st1"/>
 </g>
</svg>